<svg xmlns="http://www.w3.org/2000/svg" viewBox="0 0 800 800"><defs><style>.cls-1{fill:#383539;}.cls-2{fill:#553674;}.cls-3{fill:#744fb4;}.cls-4{fill:#a888df;}.cls-5{fill:#b19ccc;}.cls-6{fill:#a16ab5;}.cls-7{fill:#a98ae0;}</style></defs><title>final</title><g id="Background"><rect class="cls-1" width="800" height="800"/></g><g id="Object"><path class="cls-2" d="M288.49,767.11v-.26a6.51,6.51,0,0,1-1,1,3.81,3.81,0,0,1-1.1.57,4,4,0,0,1-1.3.2,3.83,3.83,0,0,1-1.72-.39,4,4,0,0,1-1.37-1.13,5.07,5.07,0,0,1-.88-1.72,7.34,7.34,0,0,1-.3-2.14,5.58,5.58,0,0,1,1.19-3.79,4,4,0,0,1,3.12-1.36,4.2,4.2,0,0,1,1.89.38,5.29,5.29,0,0,1,1.5,1.18V755.8a1.94,1.94,0,0,1,.32-1.21,1.08,1.08,0,0,1,.91-.41,1.12,1.12,0,0,1,.91.38,1.67,1.67,0,0,1,.32,1.11v11.44a1.59,1.59,0,0,1-.34,1.11,1.15,1.15,0,0,1-.88.37,1.13,1.13,0,0,1-.88-.38A1.59,1.59,0,0,1,288.49,767.11Zm-5.1-3.81a4.42,4.42,0,0,0,.33,1.79,2.5,2.5,0,0,0,.9,1.12,2.22,2.22,0,0,0,1.24.38,2.29,2.29,0,0,0,1.25-.36,2.44,2.44,0,0,0,.9-1.09,4.42,4.42,0,0,0,.34-1.84,4.31,4.31,0,0,0-.34-1.78,2.68,2.68,0,0,0-.91-1.14,2.18,2.18,0,0,0-1.26-.39,2.14,2.14,0,0,0-1.27.4,2.59,2.59,0,0,0-.87,1.16A4.59,4.59,0,0,0,283.39,763.3Z" transform="translate(0 1)"/><path class="cls-2" d="M299.93,764h-5.07a3.44,3.44,0,0,0,.36,1.56,2.38,2.38,0,0,0,2.19,1.36,3.13,3.13,0,0,0,.85-.11,2.79,2.79,0,0,0,.75-.34,5.53,5.53,0,0,0,.66-.5l.79-.72A.86.86,0,0,1,301,765a.93.93,0,0,1,.64.22.78.78,0,0,1,.25.62,1.7,1.7,0,0,1-.28.82,3.27,3.27,0,0,1-.83.9,4.72,4.72,0,0,1-1.4.72,6,6,0,0,1-1.93.29,5.17,5.17,0,0,1-3.88-1.42,5.3,5.3,0,0,1-1.39-3.87,6.43,6.43,0,0,1,.34-2.13,4.71,4.71,0,0,1,1-1.69,4.31,4.31,0,0,1,1.62-1.08,5.79,5.79,0,0,1,2.13-.37,5,5,0,0,1,2.61.64,4.22,4.22,0,0,1,1.63,1.66,4.38,4.38,0,0,1,.54,2.07c0,.65-.19,1.08-.56,1.27A3.49,3.49,0,0,1,299.93,764Zm-5.07-1.47h4.7a3.15,3.15,0,0,0-.72-2,2.14,2.14,0,0,0-1.64-.66,2.08,2.08,0,0,0-1.59.67A3.34,3.34,0,0,0,294.85,762.48Z" transform="translate(0 1)"/><path class="cls-2" d="M311.74,765.2a3,3,0,0,1-2.07,3,6.93,6.93,0,0,1-2.48.39,6.06,6.06,0,0,1-2.39-.43,3.48,3.48,0,0,1-1.47-1.07,2.16,2.16,0,0,1-.47-1.29,1,1,0,0,1,.3-.73,1,1,0,0,1,.77-.3.9.9,0,0,1,.63.2,2.17,2.17,0,0,1,.42.56,2.85,2.85,0,0,0,1,1,2.89,2.89,0,0,0,1.52.34,2.2,2.2,0,0,0,1.28-.35,1,1,0,0,0,.5-.79,1.07,1.07,0,0,0-.52-1,6.4,6.4,0,0,0-1.71-.6,14,14,0,0,1-2.18-.7,3.57,3.57,0,0,1-1.34-1A2.21,2.21,0,0,1,303,761a2.6,2.6,0,0,1,.47-1.47,3.2,3.2,0,0,1,1.37-1.11A5.25,5.25,0,0,1,307,758a7.12,7.12,0,0,1,1.81.21,4.42,4.42,0,0,1,1.34.56,2.72,2.72,0,0,1,.82.78,1.52,1.52,0,0,1,.28.84,1,1,0,0,1-.3.73,1.19,1.19,0,0,1-.85.29,1,1,0,0,1-.68-.23,4.42,4.42,0,0,1-.64-.68,2.34,2.34,0,0,0-.69-.61,2.18,2.18,0,0,0-1.08-.23,2.11,2.11,0,0,0-1.17.3.87.87,0,0,0-.47.74.81.81,0,0,0,.34.67,2.8,2.8,0,0,0,.92.43c.39.11.92.25,1.6.42a8.63,8.63,0,0,1,2,.7,3.28,3.28,0,0,1,1.16,1A2.14,2.14,0,0,1,311.74,765.2Z" transform="translate(0 1)"/><path class="cls-2" d="M314.39,756.84a1.37,1.37,0,0,1-.93-.33,1.29,1.29,0,0,1,0-1.85,1.32,1.32,0,0,1,.92-.36,1.35,1.35,0,0,1,.89.32,1.15,1.15,0,0,1,.39.94,1.19,1.19,0,0,1-.38.94A1.31,1.31,0,0,1,314.39,756.84Zm1.28,2.68V767a1.67,1.67,0,0,1-.37,1.18,1.23,1.23,0,0,1-.94.4,1.17,1.17,0,0,1-.93-.41,1.72,1.72,0,0,1-.36-1.17v-7.42a1.66,1.66,0,0,1,.36-1.16,1.2,1.2,0,0,1,.93-.39,1.24,1.24,0,0,1,.94.39A1.51,1.51,0,0,1,315.67,759.52Z" transform="translate(0 1)"/><path class="cls-2" d="M327,759.94v7.53a7.91,7.91,0,0,1-.28,2.22,3.54,3.54,0,0,1-.88,1.54,3.7,3.7,0,0,1-1.59.9,8.62,8.62,0,0,1-2.45.3,7.12,7.12,0,0,1-2.39-.37,4.18,4.18,0,0,1-1.62-1,1.77,1.77,0,0,1-.57-1.22,1,1,0,0,1,.32-.77,1.1,1.1,0,0,1,.78-.3,1.28,1.28,0,0,1,1,.5l.43.52a2.5,2.5,0,0,0,.49.45,2,2,0,0,0,.65.28,3.9,3.9,0,0,0,.87.09,3.53,3.53,0,0,0,1.56-.28,1.59,1.59,0,0,0,.78-.78,3.12,3.12,0,0,0,.26-1.08q0-.57.06-1.85a4.24,4.24,0,0,1-1.38,1.27,3.77,3.77,0,0,1-1.87.44,3.94,3.94,0,0,1-2.28-.67,4.24,4.24,0,0,1-1.5-1.86,6.85,6.85,0,0,1-.52-2.76,6.55,6.55,0,0,1,.32-2.11,4.45,4.45,0,0,1,.91-1.59,3.9,3.9,0,0,1,1.36-1,4.26,4.26,0,0,1,1.69-.33,4.09,4.09,0,0,1,1.91.42,4.67,4.67,0,0,1,1.5,1.33v-.35a1.51,1.51,0,0,1,.33-1,1.1,1.1,0,0,1,.86-.37,1,1,0,0,1,1,.49A3.2,3.2,0,0,1,327,759.94Zm-7.51,3.29a3.58,3.58,0,0,0,.69,2.38,2.23,2.23,0,0,0,1.78.81,2.33,2.33,0,0,0,1.22-.35,2.55,2.55,0,0,0,.94-1,3.66,3.66,0,0,0,.36-1.7,3.89,3.89,0,0,0-.7-2.47A2.23,2.23,0,0,0,322,760a2.15,2.15,0,0,0-1.78.85A3.78,3.78,0,0,0,319.52,763.23Z" transform="translate(0 1)"/><path class="cls-2" d="M331.15,759.48v.31a4.52,4.52,0,0,1,1.5-1.32,4,4,0,0,1,1.87-.42,3.74,3.74,0,0,1,1.83.45,2.84,2.84,0,0,1,1.2,1.26,3,3,0,0,1,.33,1,10.58,10.58,0,0,1,.08,1.41V767a1.71,1.71,0,0,1-.36,1.18,1.28,1.28,0,0,1-1.87,0,1.7,1.7,0,0,1-.36-1.17v-4.32a4.32,4.32,0,0,0-.36-2,1.46,1.46,0,0,0-1.42-.68,2.1,2.1,0,0,0-1.26.41,2.38,2.38,0,0,0-.84,1.13,8.16,8.16,0,0,0-.19,2.17V767a1.7,1.7,0,0,1-.37,1.18,1.23,1.23,0,0,1-.95.39,1.17,1.17,0,0,1-.92-.41,1.71,1.71,0,0,1-.36-1.17v-7.49a1.64,1.64,0,0,1,.32-1.11,1.12,1.12,0,0,1,.88-.37,1.21,1.21,0,0,1,.62.16,1.18,1.18,0,0,1,.44.48A1.71,1.71,0,0,1,331.15,759.48Z" transform="translate(0 1)"/><path class="cls-2" d="M346.93,764h-5.07a3.43,3.43,0,0,0,.36,1.56,2.38,2.38,0,0,0,2.19,1.36,3.13,3.13,0,0,0,.85-.11,2.82,2.82,0,0,0,.75-.34,5.78,5.78,0,0,0,.66-.5l.79-.72A.86.86,0,0,1,348,765a.93.93,0,0,1,.65.22.78.78,0,0,1,.25.62,1.69,1.69,0,0,1-.28.82,3.24,3.24,0,0,1-.83.9,4.69,4.69,0,0,1-1.4.72,6,6,0,0,1-1.93.29,5.18,5.18,0,0,1-3.89-1.42,5.31,5.31,0,0,1-1.39-3.87,6.45,6.45,0,0,1,.34-2.13,4.68,4.68,0,0,1,1-1.69,4.31,4.31,0,0,1,1.61-1.08,5.8,5.8,0,0,1,2.13-.37,5,5,0,0,1,2.61.64,4.23,4.23,0,0,1,1.63,1.66,4.37,4.37,0,0,1,.54,2.07c0,.65-.19,1.08-.56,1.27A3.49,3.49,0,0,1,346.93,764Zm-5.07-1.47h4.7a3.15,3.15,0,0,0-.72-2,2.14,2.14,0,0,0-1.64-.66,2.08,2.08,0,0,0-1.59.67A3.34,3.34,0,0,0,341.86,762.48Z" transform="translate(0 1)"/><path class="cls-2" d="M357.5,767.11v-.26a6.47,6.47,0,0,1-1,1,3.8,3.8,0,0,1-1.1.57,4,4,0,0,1-1.3.2,3.83,3.83,0,0,1-1.72-.39,4,4,0,0,1-1.37-1.13,5.09,5.09,0,0,1-.88-1.72,7.31,7.31,0,0,1-.3-2.14,5.57,5.57,0,0,1,1.19-3.79,4,4,0,0,1,3.13-1.36,4.2,4.2,0,0,1,1.89.38,5.29,5.29,0,0,1,1.5,1.18V755.8a1.93,1.93,0,0,1,.32-1.21,1.08,1.08,0,0,1,.91-.41,1.12,1.12,0,0,1,.91.38,1.67,1.67,0,0,1,.32,1.11v11.44a1.59,1.59,0,0,1-.34,1.11,1.15,1.15,0,0,1-.88.37,1.13,1.13,0,0,1-.88-.38A1.59,1.59,0,0,1,357.5,767.11Zm-5.1-3.81a4.42,4.42,0,0,0,.33,1.79,2.49,2.49,0,0,0,.9,1.12,2.22,2.22,0,0,0,1.24.38,2.29,2.29,0,0,0,1.25-.36,2.43,2.43,0,0,0,.9-1.09,4.4,4.4,0,0,0,.34-1.84,4.29,4.29,0,0,0-.34-1.78,2.68,2.68,0,0,0-.91-1.14,2.19,2.19,0,0,0-1.26-.39,2.13,2.13,0,0,0-1.27.4,2.6,2.6,0,0,0-.87,1.16A4.61,4.61,0,0,0,352.4,763.3Z" transform="translate(0 1)"/><path class="cls-2" d="M368.09,755.67v4a6,6,0,0,1,1.49-1.16,4,4,0,0,1,1.88-.4,4.19,4.19,0,0,1,2.27.61,4,4,0,0,1,1.51,1.78,6.54,6.54,0,0,1,.54,2.76,7.41,7.41,0,0,1-.3,2.16,5.15,5.15,0,0,1-.87,1.7,4,4,0,0,1-1.38,1.12,4.06,4.06,0,0,1-1.79.39,4.27,4.27,0,0,1-1.13-.14,3.22,3.22,0,0,1-.9-.37,4.12,4.12,0,0,1-.63-.48c-.17-.16-.4-.41-.69-.74v.26a1.57,1.57,0,0,1-.35,1.11,1.17,1.17,0,0,1-.89.37,1.1,1.1,0,0,1-.88-.37,1.64,1.64,0,0,1-.33-1.11V755.78a1.9,1.9,0,0,1,.32-1.19,1.07,1.07,0,0,1,.89-.4,1.14,1.14,0,0,1,.92.38A1.67,1.67,0,0,1,368.09,755.67Zm.12,7.7a3.56,3.56,0,0,0,.71,2.38,2.32,2.32,0,0,0,1.86.83,2.13,2.13,0,0,0,1.69-.85,3.72,3.72,0,0,0,.71-2.44,4.79,4.79,0,0,0-.29-1.77,2.57,2.57,0,0,0-.83-1.14,2.07,2.07,0,0,0-1.26-.4,2.26,2.26,0,0,0-1.32.4,2.68,2.68,0,0,0-.91,1.17A4.55,4.55,0,0,0,368.22,763.37Z" transform="translate(0 1)"/><path class="cls-2" d="M379.14,768.91l.24-.58-3.19-8a3,3,0,0,1-.29-1,1.18,1.18,0,0,1,.17-.62,1.27,1.27,0,0,1,.47-.46,1.22,1.22,0,0,1,.62-.17,1,1,0,0,1,.85.36,3.25,3.25,0,0,1,.5,1l2.19,6.38,2.08-5.94a10.35,10.35,0,0,1,.45-1.13,1.32,1.32,0,0,1,.42-.55,1.17,1.17,0,0,1,.63-.14,1.1,1.1,0,0,1,.56.16,1.08,1.08,0,0,1,.42.42,1.15,1.15,0,0,1,.15.56c0,.12-.07.29-.12.51s-.13.45-.21.67l-3.38,8.85a10.25,10.25,0,0,1-.86,1.83,2.8,2.8,0,0,1-1.11,1,4.06,4.06,0,0,1-1.86.36,4.52,4.52,0,0,1-1.71-.25.9.9,0,0,1-.57-.9.87.87,0,0,1,.27-.69,1.16,1.16,0,0,1,.8-.24,1.45,1.45,0,0,1,.41.06,2,2,0,0,0,.43.06,1.53,1.53,0,0,0,.7-.13,1.23,1.23,0,0,0,.46-.46A6.94,6.94,0,0,0,379.14,768.91Z" transform="translate(0 1)"/><path class="cls-2" d="M416.7,758.27h.62v-.78a5,5,0,0,1,.31-1.94,2,2,0,0,1,1-1,5.09,5.09,0,0,1,2-.33c1.52,0,2.27.37,2.27,1.11a.87.87,0,0,1-.24.62.73.73,0,0,1-.56.26,3.71,3.71,0,0,1-.53-.06,4.77,4.77,0,0,0-.62-.06.91.91,0,0,0-.9.42,2.9,2.9,0,0,0-.2,1.18v.62h.63c1,0,1.48.3,1.48.9,0,.42-.13.69-.39.8a2.8,2.8,0,0,1-1.09.17h-.63V767a1.66,1.66,0,0,1-.37,1.17,1.2,1.2,0,0,1-.94.41,1.18,1.18,0,0,1-.92-.41,1.67,1.67,0,0,1-.36-1.17v-6.87h-.71a1.34,1.34,0,0,1-.89-.26.83.83,0,0,1-.31-.68c0-.62.43-.93,1.3-.93" transform="translate(0 1)"/><path class="cls-2" d="M425.19,764.84V767a1.68,1.68,0,0,1-.37,1.18,1.22,1.22,0,0,1-.94.39,1.17,1.17,0,0,1-.93-.4,1.71,1.71,0,0,1-.36-1.17v-7.22q0-1.75,1.26-1.75a1.06,1.06,0,0,1,.93.41,2.28,2.28,0,0,1,.32,1.21,4.54,4.54,0,0,1,.95-1.21,2,2,0,0,1,1.31-.41,3.32,3.32,0,0,1,1.59.41,1.22,1.22,0,0,1,.77,1.08,1,1,0,0,1-.33.78,1,1,0,0,1-.71.31,3.27,3.27,0,0,1-.69-.18,3.35,3.35,0,0,0-1-.17,1.43,1.43,0,0,0-.93.3,2,2,0,0,0-.56.89,6.78,6.78,0,0,0-.27,1.4c0,.54-.07,1.2-.07,2" transform="translate(0 1)"/><path class="cls-2" d="M437.11,764H432a3.5,3.5,0,0,0,.36,1.56,2.5,2.5,0,0,0,.92,1,2.45,2.45,0,0,0,1.27.34,2.92,2.92,0,0,0,.85-.11,2.68,2.68,0,0,0,.74-.34,4.93,4.93,0,0,0,.66-.5c.2-.17.47-.42.79-.72a.86.86,0,0,1,.57-.17.94.94,0,0,1,.65.22.77.77,0,0,1,.24.62,1.71,1.71,0,0,1-.27.82,3.26,3.26,0,0,1-.84.91,4.84,4.84,0,0,1-1.4.71,6,6,0,0,1-1.93.29,5.17,5.17,0,0,1-3.89-1.42,5.32,5.32,0,0,1-1.39-3.87,6.4,6.4,0,0,1,.35-2.13,4.59,4.59,0,0,1,1-1.69,4.26,4.26,0,0,1,1.61-1.08,5.78,5.78,0,0,1,2.13-.37,5,5,0,0,1,2.61.65,4.15,4.15,0,0,1,1.63,1.65,4.36,4.36,0,0,1,.54,2.07,1.29,1.29,0,0,1-.56,1.27,3.49,3.49,0,0,1-1.58.29M432,762.48h4.7a3.13,3.13,0,0,0-.71-2,2.15,2.15,0,0,0-1.64-.66,2.07,2.07,0,0,0-1.59.67,3.32,3.32,0,0,0-.76,2" transform="translate(0 1)"/><path class="cls-2" d="M447.9,764h-5.07a3.47,3.47,0,0,0,.35,1.56,2.49,2.49,0,0,0,.92,1,2.45,2.45,0,0,0,1.27.34,2.87,2.87,0,0,0,.84-.11,2.69,2.69,0,0,0,.75-.34,4.93,4.93,0,0,0,.66-.5l.79-.72A.86.86,0,0,1,449,765a.94.94,0,0,1,.65.22.78.78,0,0,1,.24.62,1.64,1.64,0,0,1-.27.82,3.06,3.06,0,0,1-.83.91,4.8,4.8,0,0,1-1.4.71,6,6,0,0,1-1.93.29,5.18,5.18,0,0,1-3.89-1.42,5.32,5.32,0,0,1-1.39-3.87,6.35,6.35,0,0,1,.35-2.13,4.67,4.67,0,0,1,1-1.69,4.27,4.27,0,0,1,1.61-1.08,5.81,5.81,0,0,1,2.13-.37,5.06,5.06,0,0,1,2.61.65,4.15,4.15,0,0,1,1.62,1.65,4.39,4.39,0,0,1,.54,2.07,1.3,1.3,0,0,1-.56,1.27,3.5,3.5,0,0,1-1.58.29m-5.07-1.47h4.7a3.17,3.17,0,0,0-.71-2,2.16,2.16,0,0,0-1.64-.66,2.08,2.08,0,0,0-1.59.67,3.3,3.3,0,0,0-.75,2" transform="translate(0 1)"/><path class="cls-2" d="M453.58,759.5v.31a5,5,0,0,1,1.53-1.32,3.65,3.65,0,0,1,1.78-.43,4.19,4.19,0,0,1,2.21.62,4.28,4.28,0,0,1,1.59,1.81,6.33,6.33,0,0,1,.59,2.81,7,7,0,0,1-.34,2.2,4.93,4.93,0,0,1-.93,1.68,4.1,4.1,0,0,1-1.39,1,4.17,4.17,0,0,1-1.73.36,3.6,3.6,0,0,1-1.87-.45,5.33,5.33,0,0,1-1.44-1.3v3.89c0,1.13-.42,1.71-1.24,1.71a1,1,0,0,1-1-.44,2.88,2.88,0,0,1-.23-1.29V759.51a1.65,1.65,0,0,1,.32-1.11,1.14,1.14,0,0,1,.88-.36,1.17,1.17,0,0,1,.9.37,1.53,1.53,0,0,1,.35,1.09m5.08,3.77a4.48,4.48,0,0,0-.31-1.76,2.56,2.56,0,0,0-.87-1.13,2.07,2.07,0,0,0-1.23-.4,2.31,2.31,0,0,0-1.81.84,3.69,3.69,0,0,0-.74,2.49,3.58,3.58,0,0,0,.74,2.41,2.27,2.27,0,0,0,1.81.86,2.12,2.12,0,0,0,1.2-.37,2.55,2.55,0,0,0,.88-1.13,4.49,4.49,0,0,0,.33-1.81" transform="translate(0 1)"/><path class="cls-2" d="M463.88,756.83a1.36,1.36,0,0,1-.92-.34,1.28,1.28,0,0,1,0-1.85,1.33,1.33,0,0,1,.91-.36,1.36,1.36,0,0,1,.89.32,1.17,1.17,0,0,1,.39.95,1.2,1.2,0,0,1-.38.94,1.34,1.34,0,0,1-.91.34m1.28,2.68V767a1.66,1.66,0,0,1-.37,1.17,1.22,1.22,0,0,1-.94.4,1.17,1.17,0,0,1-.93-.41,1.75,1.75,0,0,1-.36-1.17v-7.43a1.67,1.67,0,0,1,.36-1.15,1.19,1.19,0,0,1,.93-.39,1.23,1.23,0,0,1,.94.39,1.51,1.51,0,0,1,.37,1.08" transform="translate(0 1)"/><path class="cls-2" d="M473.52,767.4l-2.28-3.77L469.83,765V767a1.57,1.57,0,0,1-.4,1.15,1.21,1.21,0,0,1-.91.41,1.16,1.16,0,0,1-.94-.4,1.76,1.76,0,0,1-.34-1.17V755.95a2.24,2.24,0,0,1,.33-1.31,1.11,1.11,0,0,1,1-.45,1.19,1.19,0,0,1,.95.41,1.8,1.8,0,0,1,.35,1.2v6.29l2.92-3.06a7.15,7.15,0,0,1,.83-.78,1.14,1.14,0,0,1,.69-.21,1.15,1.15,0,0,1,.82.31,1,1,0,0,1,.32.77c0,.38-.35.89-1.05,1.52L473,761.91l2.66,4.18c.19.31.34.54.42.71a1,1,0,0,1,.13.46,1.36,1.36,0,0,1-.34,1,1.17,1.17,0,0,1-.88.35,1,1,0,0,1-.73-.26,6.44,6.44,0,0,1-.7-.93" transform="translate(0 1)"/><path class="cls-2" d="M479.16,768.59a1.46,1.46,0,0,1-1-.38,1.34,1.34,0,0,1-.43-1.06,1.37,1.37,0,0,1,.41-1,1.36,1.36,0,0,1,1-.42,1.44,1.44,0,0,1,1,.41,1.47,1.47,0,0,1,0,2.06,1.44,1.44,0,0,1-1,.38" transform="translate(0 1)"/><path class="cls-2" d="M492.06,765.38a2.23,2.23,0,0,1-.29,1,3.46,3.46,0,0,1-.89,1.05,4.51,4.51,0,0,1-1.49.8,6.34,6.34,0,0,1-2,.31,5,5,0,0,1-3.76-1.4,5.22,5.22,0,0,1-1.35-3.76,6.16,6.16,0,0,1,.62-2.82,4.43,4.43,0,0,1,1.78-1.89,6.08,6.08,0,0,1,4.65-.37,4.88,4.88,0,0,1,1.43.76,3.71,3.71,0,0,1,.89,1,2,2,0,0,1,.31,1,1,1,0,0,1-.34.79,1.2,1.2,0,0,1-.84.32.86.86,0,0,1-.54-.17,2.41,2.41,0,0,1-.48-.54,3.88,3.88,0,0,0-1-1.08,2.44,2.44,0,0,0-3.17.54,3.9,3.9,0,0,0-.7,2.46,4.73,4.73,0,0,0,.18,1.35,3,3,0,0,0,.52,1,2.27,2.27,0,0,0,.83.65,2.45,2.45,0,0,0,1.06.23,2.4,2.4,0,0,0,1.34-.36,3.08,3.08,0,0,0,1-1.1,2.59,2.59,0,0,1,.51-.68,1,1,0,0,1,.68-.25,1,1,0,0,1,.79.36,1.15,1.15,0,0,1,.32.77" transform="translate(0 1)"/><path class="cls-2" d="M503.25,763.32a6.31,6.31,0,0,1-.36,2.14,4.74,4.74,0,0,1-1,1.68,4.65,4.65,0,0,1-1.63,1.08,5.86,5.86,0,0,1-2.14.38,5.58,5.58,0,0,1-2.12-.38,4.64,4.64,0,0,1-1.62-1.08,4.85,4.85,0,0,1-1.05-1.68,6.68,6.68,0,0,1,0-4.29,4.55,4.55,0,0,1,2.67-2.74,5.85,5.85,0,0,1,2.12-.37,5.72,5.72,0,0,1,2.14.38,4.57,4.57,0,0,1,2.68,2.75,6.26,6.26,0,0,1,.35,2.14m-2.6,0a3.9,3.9,0,0,0-.7-2.47,2.25,2.25,0,0,0-1.87-.89,2.34,2.34,0,0,0-1.34.39,2.47,2.47,0,0,0-.89,1.16,4.75,4.75,0,0,0-.31,1.8,4.66,4.66,0,0,0,.31,1.77,2.56,2.56,0,0,0,.89,1.17,2.32,2.32,0,0,0,1.35.4,2.25,2.25,0,0,0,1.88-.89,3.88,3.88,0,0,0,.7-2.45" transform="translate(0 1)"/><path class="cls-2" d="M513.14,763.5V767a1.77,1.77,0,0,1-.37,1.23,1.26,1.26,0,0,1-1,.41,1.2,1.2,0,0,1-1-.41,1.78,1.78,0,0,1-.37-1.23v-4.13a13.82,13.82,0,0,0-.06-1.53,1.67,1.67,0,0,0-.36-.88,1.15,1.15,0,0,0-.93-.35,1.65,1.65,0,0,0-1.68.88,6.15,6.15,0,0,0-.41,2.51V767a1.83,1.83,0,0,1-.36,1.22,1.34,1.34,0,0,1-1.93,0,1.76,1.76,0,0,1-.38-1.22v-7.42a1.62,1.62,0,0,1,.34-1.11,1.13,1.13,0,0,1,.89-.38,1.23,1.23,0,0,1,.89.36,1.34,1.34,0,0,1,.35,1v.24a4.53,4.53,0,0,1,1.45-1.18,3.74,3.74,0,0,1,1.71-.39,3.4,3.4,0,0,1,1.68.39,3.09,3.09,0,0,1,1.16,1.18,4.6,4.6,0,0,1,1.41-1.18,3.57,3.57,0,0,1,1.66-.39,3.82,3.82,0,0,1,1.83.42,2.68,2.68,0,0,1,1.15,1.2,5.54,5.54,0,0,1,.33,2.22V767a1.78,1.78,0,0,1-.37,1.23,1.36,1.36,0,0,1-1.94,0,1.77,1.77,0,0,1-.38-1.22v-4.36a10.47,10.47,0,0,0-.07-1.34,1.55,1.55,0,0,0-.38-.85,1.25,1.25,0,0,0-1-.34,1.76,1.76,0,0,0-1,.31,2.09,2.09,0,0,0-.72.81,6.63,6.63,0,0,0-.28,2.32" transform="translate(0 1)"/><path class="cls-2" d="M392.44,762.69v0Z" transform="translate(0 1)"/><path class="cls-2" d="M392.57,763.52h0q-.07-.35-.12-.7C392.48,763,392.52,763.28,392.57,763.52Z" transform="translate(0 1)"/><path class="cls-2" d="M393.42,765.92l0,0Z" transform="translate(0 1)"/><path class="cls-2" d="M393.34,765.76l-.07-.13Z" transform="translate(0 1)"/><path class="cls-2" d="M392.81,764.44a9,9,0,0,0,.46,1.16,8.86,8.86,0,0,1-.45-1.16Z" transform="translate(0 1)"/><path class="cls-2" d="M402.47,752.75a7.15,7.15,0,0,1,1.29.11l.12-.76a8,8,0,0,0-2.71-.23l-.12-.41a1.06,1.06,0,1,0-.44,0l.13.46a10.77,10.77,0,0,0-2.94.86l.23.71a12.72,12.72,0,0,1,2.62-.61A17.51,17.51,0,0,1,402.47,752.75Z" transform="translate(0 1)"/><path class="cls-2" d="M393.41,756.61h0l.11-.14-.31-.22-.49-.36a7.25,7.25,0,0,0-1.4,2l-.09-.12a1,1,0,0,0-.76-.29h0a.62.62,0,0,1-.43-.15.67.67,0,1,0-.53.26l.17,0a1,1,0,0,0,.81.33.55.55,0,0,1,.44.16.73.73,0,0,1,.16.43h0a7.27,7.27,0,0,0-.31,2.67l1.06,0a8,8,0,0,1,.37-2.23A10.43,10.43,0,0,1,393.41,756.61Z" transform="translate(0 1)"/><path class="cls-2" d="M411.67,753.63a.67.67,0,0,0-.67.67.58.58,0,0,0,0,.16,1,1,0,0,0-.34.81.54.54,0,0,1-.15.44.69.69,0,0,1-.3.14,8.11,8.11,0,0,0-1.76-1.78l-.76.81a11.77,11.77,0,0,1,1.73,2,13.93,13.93,0,0,1,1.14,2l1-.49a15.48,15.48,0,0,0-1.12-2.19,1,1,0,0,0,.33-.19.94.94,0,0,0,.29-.76.64.64,0,0,1,.15-.44.68.68,0,0,0,.41.14.67.67,0,1,0,0-1.34Z" transform="translate(0 1)"/><path class="cls-2" d="M409,762.84a22.8,22.8,0,0,1-6.78,2,25,25,0,0,1-3.43.23,28.71,28.71,0,0,1-3.56-.22c-1.08-.13-1.92-.3-2.43-.42a8.86,8.86,0,0,0,.45,1.16v0l.07.13.07.13,0,0a7.59,7.59,0,0,0,1.08,1.55,5.66,5.66,0,0,0,2.92,1.83h0a11.56,11.56,0,0,0,3.29.43,14.39,14.39,0,0,0,5.67-1.17,9.25,9.25,0,0,0,3.25-2.67,7.45,7.45,0,0,0,1.05-2.29,5.94,5.94,0,0,0,.15-1.83A15.82,15.82,0,0,1,409,762.84Z" transform="translate(0 1)"/><path class="cls-2" d="M393.86,756.94a10.23,10.23,0,0,0-1.13,2.25,8.44,8.44,0,0,0-.35,2.46h0a9.13,9.13,0,0,0,.06,1v0s0,.08,0,.13q0,.35.12.7a26.88,26.88,0,0,0,9.55.5,21.94,21.94,0,0,0,6.5-1.93,14,14,0,0,0,2.12-1.24,14,14,0,0,0-1.74-3.65c-2-2.87-4.17-3.6-5.28-3.78a7.12,7.12,0,0,0-1.24-.11,17.07,17.07,0,0,0-1.74.12,11.73,11.73,0,0,0-2.53.6,9.77,9.77,0,0,0-3.53,2l0,0A6.89,6.89,0,0,0,393.86,756.94Zm12.27-.67a1.74,1.74,0,1,1-1.74,1.74A1.75,1.75,0,0,1,406.13,756.28Zm-8.24-.07a2.82,2.82,0,1,1-2.82,2.82A2.82,2.82,0,0,1,397.89,756.21Z" transform="translate(0 1)"/><g id="_Group_" data-name="&lt;Group&gt;"><polygon class="cls-3" points="683.39 83.12 746.22 152.08 694.48 132.15 683.39 83.12"/><polygon class="cls-4" points="746.22 152.08 683.39 215.03 690.35 163.01 746.22 152.08"/><polygon class="cls-5" points="746.22 152.08 690.35 163.01 694.48 132.15 746.22 152.08"/><polygon class="cls-2" points="683.39 83.12 694.48 132.15 676.18 135.62 683.39 83.12"/><polygon class="cls-6" points="694.48 132.15 690.35 163.01 671.92 166.6 676.18 135.62 694.48 132.15"/><polygon class="cls-3" points="690.35 163.01 683.39 215.03 671.92 166.6 690.35 163.01"/><polygon class="cls-5" points="683.39 83.12 676.18 135.62 620.15 146.25 683.39 83.12"/><polygon class="cls-2" points="671.92 166.6 683.39 215.03 620.15 146.25 671.92 166.6"/><polygon class="cls-3" points="676.18 135.62 671.92 166.6 620.15 146.25 676.18 135.62"/></g><g id="_Group_2" data-name="&lt;Group&gt;"><polygon class="cls-3" points="181.95 380 190.36 416.13 170.48 403.81 163.73 388.75 181.95 380"/><polygon class="cls-2" points="190.36 416.13 162.35 458.14 137.14 444.98 142.18 423.97 170.48 403.81 190.36 416.13"/><polygon class="cls-6" points="157.02 340.51 181.95 380 163.73 388.75 148.91 355.63 157.02 340.51"/><polygon class="cls-5" points="163.73 388.75 170.48 403.81 142.18 423.97 148.91 395.87 163.73 388.75"/><polygon class="cls-2" points="148.91 355.63 163.73 388.75 148.91 395.87 103.53 369.92 105.41 356.78 148.91 355.63"/><polygon class="cls-5" points="162.35 458.14 124.82 467.38 127.83 445.56 137.14 444.98 162.35 458.14"/><polygon class="cls-3" points="157.02 340.51 148.91 355.63 105.41 356.78 108.58 334.63 157.02 340.51"/><polygon class="cls-3" points="148.91 395.87 142.18 423.97 129.58 432.93 83.36 406.33 89.98 379.84 103.53 369.92 148.91 395.87"/><polygon class="cls-4" points="142.18 423.97 137.14 444.98 127.83 445.56 129.58 432.93 142.18 423.97"/><polygon class="cls-5" points="129.58 432.93 127.83 445.56 83.65 448.34 68.66 413.75 83.36 406.33 129.58 432.93"/><polygon class="cls-3" points="127.83 445.56 124.82 467.38 75.52 462.35 83.65 448.34 127.83 445.56"/><polygon class="cls-5" points="108.58 334.63 105.41 356.78 95.69 357.03 70.48 344.43 108.58 334.63"/><polygon class="cls-4" points="105.41 356.78 103.53 369.92 89.98 379.84 95.69 357.03 105.41 356.78"/><polygon class="cls-2" points="95.69 357.03 89.98 379.84 62.64 399.88 42.47 387 70.48 344.43 95.69 357.03"/><polygon class="cls-6" points="89.98 379.84 83.36 406.33 68.66 413.75 62.64 399.88 89.98 379.84"/><polygon class="cls-2" points="68.66 413.75 83.65 448.34 75.52 462.35 51.16 422.57 68.66 413.75"/><polygon class="cls-3" points="68.66 413.75 51.16 422.57 42.47 387 62.64 399.88 68.66 413.75"/></g><g id="_Group_3" data-name="&lt;Group&gt;"><polygon class="cls-3" points="544.8 349.29 553.75 390 541.35 376.43 544.8 349.29"/><polygon class="cls-6" points="541.35 376.43 553.75 390 537.63 405.71 541.35 376.43"/><polygon class="cls-5" points="553.75 390 544.05 456.02 536.22 416.77 537.63 405.71 553.75 390"/><polygon class="cls-6" points="544.8 349.29 541.35 376.43 520.91 354.03 544.8 349.29"/><polygon class="cls-2" points="544.8 349.29 520.91 354.03 503.03 334.44 544.8 349.29"/><polygon class="cls-3" points="536.22 416.77 544.05 456.02 510.12 442.72 536.22 416.77"/><polygon class="cls-6" points="544.05 456.02 485.13 467.58 510.12 442.72 544.05 456.02"/><polygon class="cls-3" points="520.91 354.03 541.35 376.43 537.63 405.71 531.57 411.61 485.88 360.98 520.91 354.03"/><polygon class="cls-4" points="537.63 405.71 536.22 416.77 531.57 411.61 537.63 405.71"/><polygon class="cls-2" points="531.57 411.61 536.22 416.77 510.12 442.72 502.65 439.79 531.57 411.61"/><polygon class="cls-6" points="485.88 360.98 531.57 411.61 502.65 439.79 457.32 389.5 485.88 360.98"/><polygon class="cls-4" points="503.03 334.44 520.91 354.03 485.88 360.98 478.96 358.31 503.03 334.44"/><polygon class="cls-4" points="510.12 442.72 485.13 467.58 465.31 445.7 502.65 439.79 510.12 442.72"/><polygon class="cls-3" points="503.03 334.44 478.96 358.31 445.22 345.25 503.03 334.44"/><polygon class="cls-3" points="457.32 389.5 502.65 439.79 465.31 445.7 446.8 425.27 451.04 395.77 457.32 389.5"/><polygon class="cls-2" points="485.88 360.98 457.32 389.5 452.68 384.36 478.96 358.31 485.88 360.98"/><polygon class="cls-6" points="465.31 445.7 485.13 467.58 443.36 449.18 465.31 445.7"/><polygon class="cls-4" points="478.96 358.31 452.68 384.36 445.22 345.25 478.96 358.31"/><polygon class="cls-5" points="465.31 445.7 443.36 449.18 446.8 425.27 465.31 445.7"/><polygon class="cls-5" points="457.32 389.5 451.04 395.77 452.68 384.36 457.32 389.5"/><polygon class="cls-6" points="445.22 345.25 452.68 384.36 451.04 395.77 434.78 412.01 445.22 345.25"/><polygon class="cls-4" points="451.04 395.77 446.8 425.27 434.78 412.01 451.04 395.77"/><polygon class="cls-2" points="434.78 412.01 446.8 425.27 443.36 449.18 434.78 412.01"/></g><g id="_Group_4" data-name="&lt;Group&gt;"><polygon class="cls-3" points="305.59 599.92 385.4 687.51 319.67 662.18 305.59 599.92"/><polygon class="cls-2" points="385.4 687.51 291.03 705.95 296.43 666.59 319.67 662.18 385.4 687.51"/><polygon class="cls-6" points="305.59 599.92 319.67 662.18 296.43 666.59 305.59 599.92"/><polygon class="cls-4" points="305.59 599.92 296.43 666.59 225.28 680.09 305.59 599.92"/><polygon class="cls-5" points="296.43 666.59 291.03 705.95 225.28 680.09 296.43 666.59"/></g><polygon class="cls-5" points="354.1 102.51 354.1 195.94 358.42 204.17 358.42 100.44 354.1 102.51"/><polygon class="cls-4" points="358.42 100.44 354.1 92.21 354.1 102.51 358.42 100.44"/><polygon class="cls-6" points="342.8 192.41 342.8 211.7 358.42 204.17 354.1 195.94 342.8 192.41"/><polygon class="cls-3" points="342.8 192.41 354.1 195.94 354.1 102.51 342.8 107.96 342.8 192.41"/><polygon class="cls-2" points="342.8 107.96 354.1 102.51 354.1 92.21 330.88 84.95 330.88 109.36 342.8 107.96"/><polygon class="cls-4" points="330.88 188.69 312.48 187.54 312.48 215.25 342.8 211.7 342.8 192.41 330.88 188.69"/><polygon class="cls-6" points="330.88 109.36 330.88 188.69 342.8 192.41 342.8 107.96 330.88 109.36"/><polygon class="cls-5" points="312.48 111.52 312.48 187.54 330.88 188.69 330.88 109.36 312.48 111.52"/><polygon class="cls-4" points="312.48 111.52 330.88 109.36 330.88 84.95 298.05 82.89 298.05 110.96 312.48 111.52"/><polygon class="cls-5" points="298.05 186.63 279.85 189.48 279.85 214 312.48 215.25 312.48 187.54 298.05 186.63"/><polygon class="cls-3" points="298.05 110.96 298.05 186.63 312.48 187.54 312.48 111.52 298.05 110.96"/><polygon class="cls-2" points="279.85 110.26 279.85 189.48 298.05 186.63 298.05 110.96 279.85 110.26"/><polygon class="cls-5" points="279.85 110.26 298.05 110.96 298.05 82.89 268.35 87.55 268.35 106.84 279.85 110.26"/><polygon class="cls-6" points="268.35 191.29 256.64 196.7 256.64 207.1 279.85 214 279.85 189.48 268.35 191.29"/><polygon class="cls-4" points="268.35 106.84 268.35 191.29 279.85 189.48 279.85 110.26 268.35 106.84"/><polygon class="cls-5" points="256.64 103.36 256.64 196.7 268.35 191.29 268.35 106.84 256.64 103.36"/><polygon class="cls-6" points="268.35 106.84 268.35 87.55 252.26 94.99 256.64 103.36 268.35 106.84"/><polygon class="cls-3" points="252.26 198.73 256.64 207.1 256.64 196.7 252.26 198.73"/><polygon class="cls-2" points="256.64 103.36 252.26 94.99 252.26 198.73 256.64 196.7 256.64 103.36"/><g id="_Group_5" data-name="&lt;Group&gt;"><polygon class="cls-3" points="560.26 102.66 560.26 201.12 505.94 180.74 505.94 112.98 560.26 102.66"/><polygon class="cls-2" points="560.26 102.66 505.94 112.98 505.94 82.28 560.26 102.66"/><polygon class="cls-6" points="560.26 201.12 482.59 215.87 482.59 185.17 505.94 180.74 560.26 201.12"/><polygon class="cls-2" points="505.94 112.98 505.94 180.74 482.59 185.17 482.59 117.41 505.94 112.98"/><polygon class="cls-4" points="505.94 82.28 505.94 112.98 482.59 117.41 428.26 97.02 505.94 82.28"/><polygon class="cls-2" points="482.59 185.17 482.59 215.87 428.26 195.48 482.59 185.17"/><polygon class="cls-5" points="482.59 117.41 482.59 185.17 428.26 195.48 428.26 97.02 482.59 117.41"/></g><g id="_Group_6" data-name="&lt;Group&gt;"><polygon class="cls-5" points="727.6 606.89 747.1 655.99 729.45 636.61 727.6 606.89"/><polygon class="cls-2" points="729.45 636.61 747.1 655.99 730.25 649.5 729.45 636.61"/><polygon class="cls-3" points="747.1 655.99 733.22 697.31 731.61 671.5 747.1 655.99"/><polygon class="cls-4" points="747.1 655.99 731.61 671.5 730.85 659.16 747.1 655.99"/><polygon class="cls-6" points="747.1 655.99 730.85 659.16 730.25 649.5 747.1 655.99"/><polygon class="cls-4" points="731.61 671.5 733.22 697.31 720.53 682.61 731.61 671.5"/><polygon class="cls-6" points="720.53 682.61 733.22 697.31 715.5 687.64 720.53 682.61"/><polygon class="cls-3" points="733.22 697.31 683.39 719.81 705.4 697.77 733.22 697.31"/><polygon class="cls-5" points="733.22 697.31 705.4 697.77 715.5 687.64 733.22 697.31"/><polygon class="cls-5" points="730.85 659.16 731.61 671.5 720.53 682.61 704.72 664.27 730.85 659.16"/><polygon class="cls-3" points="730.25 649.5 730.85 659.16 704.72 664.27 698.12 656.63 707.54 640.74 730.25 649.5"/><polygon class="cls-4" points="730.25 649.5 707.54 640.74 717.66 623.67 729.45 636.61 730.25 649.5"/><polygon class="cls-2" points="727.6 606.89 729.45 636.61 717.66 623.67 727.6 606.89"/><polygon class="cls-6" points="727.6 606.89 717.66 623.67 710.4 615.71 727.6 606.89"/><polygon class="cls-3" points="727.6 606.89 710.4 615.71 702.84 607.4 727.6 606.89"/><polygon class="cls-2" points="727.6 606.89 702.84 607.4 683.39 586.07 727.6 606.89"/><polygon class="cls-3" points="720.53 682.61 715.5 687.64 689.59 673.47 690.01 670.32 692.14 666.73 704.72 664.27 720.53 682.61"/><polygon class="cls-5" points="717.66 623.67 707.54 640.74 694.64 635.77 692.21 625.03 710.4 615.71 717.66 623.67"/><polygon class="cls-4" points="689.59 673.47 715.5 687.64 705.4 697.77 686.3 698.08 689.59 673.47"/><polygon class="cls-6" points="710.4 615.71 692.21 625.03 688.29 607.71 702.84 607.4 710.4 615.71"/><polygon class="cls-4" points="707.54 640.74 698.12 656.63 692.69 650.33 694.64 635.77 707.54 640.74"/><polygon class="cls-5" points="705.4 697.77 683.39 719.81 686.3 698.08 705.4 697.77"/><polygon class="cls-2" points="704.72 664.27 692.14 666.73 698.12 656.63 704.72 664.27"/><polygon class="cls-5" points="702.84 607.4 688.29 607.71 683.39 586.07 702.84 607.4"/><polygon class="cls-6" points="698.12 656.63 692.14 666.73 690.45 667.06 692.69 650.33 698.12 656.63"/><polygon class="cls-2" points="692.21 625.03 694.64 635.77 682.17 638.13 677.41 632.62 692.21 625.03"/><polygon class="cls-6" points="694.64 635.77 692.69 650.33 682.17 638.13 694.64 635.77"/><polygon class="cls-2" points="692.69 650.33 690.45 667.06 684.46 668.23 673.8 655.95 676.09 639.29 682.17 638.13 692.69 650.33"/><polygon class="cls-3" points="688.29 607.71 692.21 625.03 677.41 632.62 677.03 632.41 680.39 607.88 688.29 607.71"/><polygon class="cls-5" points="692.14 666.73 690.01 670.32 690.45 667.06 692.14 666.73"/><polygon class="cls-4" points="690.45 667.06 690.01 670.32 688.5 672.88 684.46 668.23 690.45 667.06"/><polygon class="cls-6" points="688.5 672.88 690.01 670.32 689.59 673.47 688.5 672.88"/><polygon class="cls-6" points="689.59 673.47 686.3 698.08 678.28 698.21 674.06 680.39 688.5 672.88 689.59 673.47"/><polygon class="cls-5" points="684.46 668.23 688.5 672.88 674.06 680.39 671.77 670.71 684.46 668.23"/><polygon class="cls-2" points="688.29 607.71 680.39 607.88 683.39 586.07 688.29 607.71"/><polygon class="cls-3" points="686.3 698.08 683.39 719.81 678.28 698.21 686.3 698.08"/><polygon class="cls-3" points="684.46 668.23 671.77 670.71 673.8 655.95 684.46 668.23"/><polygon class="cls-4" points="683.39 586.07 680.39 607.88 661.14 608.27 683.39 586.07"/><polygon class="cls-4" points="678.28 698.21 683.39 719.81 663.75 698.45 678.28 698.21"/><polygon class="cls-5" points="663.75 698.45 683.39 719.81 638.63 698.86 663.75 698.45"/><polygon class="cls-5" points="683.39 586.07 661.14 608.27 632.89 608.86 683.39 586.07"/><polygon class="cls-6" points="682.17 638.13 676.09 639.29 676.87 633.53 677.41 632.62 682.17 638.13"/><polygon class="cls-5" points="680.39 607.88 677.03 632.41 650.91 618.48 661.14 608.27 680.39 607.88"/><polygon class="cls-5" points="674.06 680.39 678.28 698.21 663.75 698.45 655.87 689.88 674.06 680.39"/><polygon class="cls-7" points="677.41 632.62 676.87 633.53 677.03 632.41 677.41 632.62"/><polygon class="cls-2" points="677.03 632.41 676.87 633.53 673.18 639.84 661.69 642.01 645.73 623.65 650.91 618.48 677.03 632.41"/><polygon class="cls-3" points="676.87 633.53 676.09 639.29 673.18 639.84 676.87 633.53"/><polygon class="cls-4" points="676.09 639.29 673.8 655.95 667.79 649.04 673.18 639.84 676.09 639.29"/><polygon class="cls-2" points="674.06 680.39 655.87 689.88 648.55 681.92 658.22 665.38 671.77 670.71 674.06 680.39"/><polygon class="cls-6" points="673.8 655.95 671.77 670.71 658.22 665.38 667.79 649.04 673.8 655.95"/><polygon class="cls-5" points="673.18 639.84 667.79 649.04 661.69 642.01 673.18 639.84"/><polygon class="cls-3" points="661.69 642.01 667.79 649.04 658.22 665.38 635.94 656.62 635.32 647.02 661.69 642.01"/><polygon class="cls-6" points="663.75 698.45 638.63 698.86 655.87 689.88 663.75 698.45"/><polygon class="cls-4" points="645.73 623.65 661.69 642.01 635.32 647.02 634.54 634.82 645.73 623.65"/><polygon class="cls-3" points="661.14 608.27 650.91 618.48 632.89 608.86 661.14 608.27"/><polygon class="cls-5" points="658.22 665.38 648.55 681.92 636.73 669.05 635.94 656.62 658.22 665.38"/><polygon class="cls-5" points="648.55 681.92 655.87 689.88 638.63 698.86 648.55 681.92"/><polygon class="cls-6" points="650.91 618.48 645.73 623.65 632.89 608.86 650.91 618.48"/><polygon class="cls-3" points="636.73 669.05 648.55 681.92 638.63 698.86 636.73 669.05"/><polygon class="cls-2" points="632.89 608.86 645.73 623.65 634.54 634.82 632.89 608.86"/><polygon class="cls-2" points="636.73 669.05 638.63 698.86 619.27 650.06 636.73 669.05"/><polygon class="cls-4" points="635.94 656.62 636.73 669.05 619.27 650.06 635.94 656.62"/><polygon class="cls-6" points="635.32 647.02 635.94 656.62 619.27 650.06 635.32 647.02"/><polygon class="cls-2" points="634.54 634.82 635.32 647.02 619.27 650.06 634.54 634.82"/><polygon class="cls-5" points="632.89 608.86 634.54 634.82 619.27 650.06 632.89 608.86"/></g><g id="_Group_7" data-name="&lt;Group&gt;"><polygon class="cls-6" points="374.68 385.44 374.68 416.57 369.63 401 374.68 385.44"/><polygon class="cls-2" points="348.2 335.05 374.68 385.44 361.44 375.81 348.2 335.05"/><polygon class="cls-2" points="374.68 385.44 369.63 401 365.26 387.55 374.68 385.44"/><polygon class="cls-5" points="369.63 401 374.68 416.57 365.26 414.45 369.63 401"/><polygon class="cls-5" points="374.68 416.57 348.2 466.96 361.44 426.2 374.68 416.57"/><polygon class="cls-3" points="374.68 385.44 365.26 387.55 361.44 375.81 374.68 385.44"/><polygon class="cls-6" points="374.68 416.57 361.44 426.2 365.26 414.45 374.68 416.57"/><polygon class="cls-6" points="369.63 401 365.26 414.45 305.34 401 369.63 401"/><polygon class="cls-3" points="369.63 401 305.34 401 365.26 387.55 369.63 401"/><polygon class="cls-2" points="365.26 414.45 361.44 426.2 305.34 466.96 305.34 401 365.26 414.45"/><polygon class="cls-4" points="361.44 375.81 365.26 387.55 305.34 401 305.34 335.05 361.44 375.81"/><polygon class="cls-5" points="348.2 335.05 361.44 375.81 305.34 335.05 348.2 335.05"/><polygon class="cls-6" points="361.44 426.2 348.2 466.96 305.34 466.96 361.44 426.2"/><polygon class="cls-3" points="305.34 401 305.34 466.96 249.24 426.2 245.42 414.45 305.34 401"/><polygon class="cls-5" points="305.34 335.05 305.34 401 245.42 387.55 249.24 375.81 305.34 335.05"/><polygon class="cls-6" points="305.34 335.05 249.24 375.81 262.48 335.05 305.34 335.05"/><polygon class="cls-5" points="305.34 401 245.42 414.45 241.05 401 305.34 401"/><polygon class="cls-2" points="305.34 401 241.05 401 245.42 387.55 305.34 401"/><polygon class="cls-4" points="305.34 466.96 262.48 466.96 249.24 426.2 305.34 466.96"/><polygon class="cls-2" points="262.48 335.05 249.24 375.81 236 385.44 262.48 335.05"/><polygon class="cls-5" points="249.24 426.2 262.48 466.96 236 416.57 249.24 426.2"/><polygon class="cls-4" points="236 385.44 249.24 375.81 245.42 387.55 236 385.44"/><polygon class="cls-2" points="249.24 426.2 236 416.57 245.42 414.45 249.24 426.2"/><polygon class="cls-3" points="245.42 387.55 241.05 401 236 385.44 245.42 387.55"/><polygon class="cls-3" points="241.05 401 245.42 414.45 236 416.57 241.05 401"/><polygon class="cls-2" points="236 385.44 241.05 401 236 416.57 236 385.44"/></g><g id="_Group_8" data-name="&lt;Group&gt;"><polygon class="cls-2" points="560.58 652.93 541.15 672.36 541.15 652.93 560.58 652.93"/><polygon class="cls-5" points="560.58 652.93 541.15 652.93 541.15 633.51 560.58 652.93"/><polygon class="cls-4" points="541.15 672.36 541.15 699.83 527.42 686.09 541.15 672.36"/><polygon class="cls-3" points="541.15 652.93 541.15 672.36 503.93 674.74 541.15 633.51 541.15 652.93"/><polygon class="cls-5" points="541.15 606.04 541.15 633.51 527.42 619.78 541.15 606.04"/><polygon class="cls-3" points="541.15 606.04 527.42 619.78 513.68 606.04 541.15 606.04"/><polygon class="cls-2" points="541.15 633.51 503.93 674.74 494.26 652.93 541.15 633.51"/><polygon class="cls-5" points="541.15 672.36 527.42 686.09 513.68 699.83 503.93 674.74 541.15 672.36"/><polygon class="cls-3" points="541.15 633.51 494.26 652.93 506.06 626.01 541.15 633.51"/><polygon class="cls-4" points="541.15 633.51 506.06 626.01 513.68 606.04 527.42 619.78 541.15 633.51"/><polygon class="cls-3" points="541.15 699.83 513.68 699.83 527.42 686.09 541.15 699.83"/><polygon class="cls-2" points="513.68 606.04 506.06 626.01 474.84 606.04 494.26 606.04 513.68 606.04"/><polygon class="cls-3" points="503.93 674.74 513.68 699.83 494.26 699.83 474.84 699.83 503.93 674.74"/><polygon class="cls-2" points="513.68 699.83 494.26 719.25 494.26 699.83 513.68 699.83"/><polygon class="cls-3" points="513.68 606.04 494.26 606.04 494.26 586.62 513.68 606.04"/><polygon class="cls-5" points="506.06 626.01 494.26 652.93 474.84 606.04 506.06 626.01"/><polygon class="cls-6" points="494.26 652.93 503.93 674.74 474.84 699.83 494.26 652.93"/><polygon class="cls-5" points="494.26 699.83 494.26 719.25 474.84 699.83 494.26 699.83"/><polygon class="cls-4" points="494.26 586.62 494.26 606.04 474.84 606.04 494.26 586.62"/><polygon class="cls-3" points="474.84 606.04 494.26 652.93 461.11 619.78 474.84 606.04"/><polygon class="cls-5" points="494.26 652.93 474.84 699.83 472.63 672.36 494.26 652.93"/><polygon class="cls-2" points="494.26 652.93 472.63 672.36 461.11 619.78 494.26 652.93"/><polygon class="cls-5" points="474.84 606.04 461.11 619.78 447.37 606.04 474.84 606.04"/><polygon class="cls-4" points="472.63 672.36 474.84 699.83 461.11 686.09 447.37 672.36 472.63 672.36"/><polygon class="cls-3" points="474.84 699.83 447.37 699.83 461.11 686.09 474.84 699.83"/><polygon class="cls-3" points="461.11 619.78 472.63 672.36 447.37 672.36 447.37 652.93 447.37 633.51 461.11 619.78"/><polygon class="cls-6" points="461.11 619.78 447.37 633.51 447.37 606.04 461.11 619.78"/><polygon class="cls-2" points="461.11 686.09 447.37 699.83 447.37 672.36 461.11 686.09"/><polygon class="cls-2" points="447.37 652.93 447.37 672.36 427.95 652.93 447.37 652.93"/><polygon class="cls-5" points="447.37 633.51 447.37 652.93 427.95 652.93 447.37 633.51"/></g><polygon class="cls-3" points="183.72 114.64 150.93 81.85 145.63 101.62 163.95 119.94 183.72 114.64"/><polygon class="cls-3" points="145.55 196.62 150.85 216.38 183.63 183.59 163.86 178.29 145.55 196.62"/><polygon class="cls-2" points="173.18 129.17 163.95 119.94 138.93 126.65 145.63 101.62 136.4 92.39 127.17 126.86 138.73 138.41 173.18 129.17"/><polygon class="cls-5" points="163.86 178.29 173.09 169.06 138.63 159.83 127.09 171.38 136.32 205.84 145.55 196.62 138.84 171.59 163.86 178.29"/><polygon class="cls-6" points="163.95 119.94 145.63 101.62 138.93 126.65 163.95 119.94"/><polygon class="cls-2" points="138.84 171.59 145.55 196.62 163.86 178.29 138.84 171.59"/><polygon class="cls-3" points="123.03 155.6 123.02 155.65 138.63 159.83 146.17 152.29 134.35 149.13 122.17 152.4 123.03 155.6"/><polygon class="cls-3" points="122.94 142.64 138.73 138.41 127.17 126.86 122.99 142.47 122.94 142.64"/><polygon class="cls-6" points="123.02 155.65 122.86 155.6 127.09 171.38 138.63 159.83 123.02 155.65"/><polygon class="cls-6" points="121.22 148.87 122.17 152.4 134.35 149.13 122.03 145.83 121.22 148.87"/><polygon class="cls-5" points="122.94 142.46 122.03 145.83 134.35 149.13 146.25 145.94 138.73 138.41 122.94 142.64 122.99 142.47 127.17 126.86 119.64 119.33 116.47 131.14 119.73 143.32 122.94 142.46"/><polygon class="cls-4" points="123.02 155.65 123.03 155.6 119.67 154.7 116.36 167.01 119.55 178.91 127.09 171.38 122.86 155.6 123.02 155.65"/><polygon class="cls-5" points="120.14 152.94 119.67 154.7 123.03 155.6 122.17 152.4 120.14 152.94"/><polygon class="cls-2" points="122.03 145.83 122.94 142.46 119.73 143.32 120.28 145.36 122.03 145.83"/><polygon class="cls-2" points="122.17 152.4 121.22 148.87 120.14 152.94 122.17 152.4"/><polygon class="cls-4" points="121.22 148.87 122.03 145.83 120.28 145.36 121.22 148.87"/><polygon class="cls-3" points="121.22 148.87 120.28 145.36 116.2 144.26 112.69 145.21 111.61 149.28 112.55 152.79 116.61 153.88 120.14 152.94 121.22 148.87"/><polygon class="cls-6" points="119.73 143.32 116.2 144.26 120.28 145.36 119.73 143.32"/><polygon class="cls-2" points="116.61 153.88 119.67 154.7 120.14 152.94 116.61 153.88"/><polygon class="cls-4" points="116.2 144.26 119.73 143.32 116.47 131.14 113.17 143.45 116.2 144.26"/><polygon class="cls-5" points="116.61 153.88 113.09 154.83 116.36 167.01 119.67 154.7 116.61 153.88"/><polygon class="cls-6" points="113.09 154.83 116.61 153.88 112.55 152.79 113.09 154.83"/><polygon class="cls-6" points="109.96 142.59 113.17 143.45 116.47 131.14 113.28 119.24 105.74 126.77 109.97 142.56 109.96 142.59"/><polygon class="cls-6" points="109.89 155.69 109.94 155.53 110.79 152.32 98.48 149.02 86.57 152.21 94.11 159.75 109.89 155.51 105.66 171.29 113.19 178.83 116.36 167.01 113.09 154.83 109.89 155.69"/><polygon class="cls-5" points="116.2 144.26 113.17 143.45 112.69 145.21 116.2 144.26"/><polygon class="cls-2" points="113.17 143.45 109.96 142.59 109.8 142.56 110.66 145.76 112.69 145.21 113.17 143.45"/><polygon class="cls-4" points="110.79 152.32 109.94 155.53 109.89 155.69 113.09 154.83 112.55 152.79 110.79 152.32"/><polygon class="cls-4" points="110.66 145.76 111.61 149.28 112.69 145.21 110.66 145.76"/><polygon class="cls-2" points="111.61 149.28 110.79 152.32 112.55 152.79 111.61 149.28"/><polygon class="cls-5" points="111.61 149.28 110.66 145.76 98.48 149.02 110.79 152.32 111.61 149.28"/><polygon class="cls-4" points="109.8 142.56 109.96 142.59 109.97 142.56 94.19 138.32 86.66 145.85 98.48 149.02 110.66 145.76 109.8 142.56"/><polygon class="cls-3" points="105.74 126.77 94.19 138.32 109.97 142.56 105.74 126.77"/><polygon class="cls-3" points="94.11 159.75 105.66 171.29 109.89 155.51 94.11 159.75"/><polygon class="cls-6" points="96.51 92.31 87.28 101.54 93.99 126.56 68.97 119.86 59.74 129.09 94.19 138.32 105.74 126.77 96.51 92.31"/><polygon class="cls-5" points="59.65 168.98 68.88 178.21 93.9 171.5 87.2 196.52 96.43 205.75 105.66 171.29 94.11 159.75 59.65 168.98"/><polygon class="cls-2" points="87.28 101.54 68.97 119.86 93.99 126.56 87.28 101.54"/><polygon class="cls-3" points="68.88 178.21 87.2 196.52 93.9 171.5 68.88 178.21"/><polygon class="cls-3" points="81.98 81.77 49.2 114.56 68.97 119.86 87.28 101.54 81.98 81.77"/><polygon class="cls-2" points="49.11 183.5 81.9 216.29 87.2 196.52 68.88 178.21 49.11 183.5"/><g id="_Group_9" data-name="&lt;Group&gt;"><polygon class="cls-2" points="741.37 367.41 750.37 401 729.07 388.7 741.37 367.41"/><polygon class="cls-3" points="750.37 401 741.37 434.6 729.07 413.3 750.37 401"/><polygon class="cls-5" points="750.37 401 729.07 413.3 721.98 401 729.07 388.7 750.37 401"/><polygon class="cls-3" points="741.37 367.41 729.07 388.7 716.78 381.61 716.78 367.41 741.37 367.41"/><polygon class="cls-5" points="729.07 413.3 741.37 434.6 716.78 434.6 716.78 420.4 729.07 413.3"/><polygon class="cls-3" points="741.37 434.6 716.78 459.18 716.78 434.6 741.37 434.6"/><polygon class="cls-2" points="741.37 367.41 716.78 367.41 716.78 342.82 741.37 367.41"/><polygon class="cls-4" points="721.98 401 729.07 413.3 716.78 420.4 711.58 411.39 721.98 401"/><polygon class="cls-2" points="729.07 388.7 721.98 401 711.58 411.39 699.98 391.31 716.78 381.61 729.07 388.7"/><polygon class="cls-5" points="716.78 434.6 716.78 459.18 695.49 446.88 702.58 434.6 716.78 434.6"/><polygon class="cls-2" points="716.78 420.4 716.78 434.6 702.58 434.6 697.39 425.59 702.58 420.4 716.78 420.4"/><polygon class="cls-6" points="716.78 367.41 716.78 381.61 702.58 367.41 716.78 367.41"/><polygon class="cls-3" points="716.78 342.82 716.78 367.41 702.58 367.41 695.49 355.12 716.78 342.82"/><polygon class="cls-3" points="711.58 411.39 716.78 420.4 702.58 420.4 711.58 411.39"/><polygon class="cls-5" points="716.78 342.82 695.49 355.12 683.19 333.82 716.78 342.82"/><polygon class="cls-4" points="716.78 381.61 699.98 391.31 688.38 371.22 702.58 367.41 716.78 381.61"/><polygon class="cls-4" points="716.78 459.18 683.19 468.19 695.49 446.88 716.78 459.18"/><polygon class="cls-5" points="711.58 411.39 702.58 420.4 694.38 420.4 683.19 401 699.98 391.31 711.58 411.39"/><polygon class="cls-2" points="695.49 355.12 702.58 367.41 688.38 371.22 683.19 362.22 695.49 355.12"/><polygon class="cls-4" points="702.58 420.4 697.39 425.59 694.38 420.4 702.58 420.4"/><polygon class="cls-4" points="697.39 425.59 702.58 434.6 695.49 446.88 683.19 439.79 697.39 425.59"/><polygon class="cls-3" points="688.38 371.22 699.98 391.31 683.19 401 668.99 376.42 688.38 371.22"/><polygon class="cls-3" points="694.38 420.4 697.39 425.59 683.19 439.79 677.99 420.4 694.38 420.4"/><polygon class="cls-3" points="695.49 446.88 683.19 468.19 670.89 446.88 683.19 439.79 695.49 446.88"/><polygon class="cls-4" points="683.19 333.82 695.49 355.12 683.19 362.22 670.89 355.12 683.19 333.82"/><polygon class="cls-6" points="683.19 401 694.38 420.4 677.99 420.4 674.19 406.2 683.19 401"/><polygon class="cls-6" points="683.19 362.22 688.38 371.22 668.99 376.42 683.19 362.22"/><polygon class="cls-3" points="683.19 333.82 670.89 355.12 649.6 342.82 683.19 333.82"/><polygon class="cls-5" points="683.19 362.22 668.99 376.42 663.79 367.41 670.89 355.12 683.19 362.22"/><polygon class="cls-2" points="668.99 376.42 683.19 401 674.19 406.2 666.8 378.61 668.99 376.42"/><polygon class="cls-2" points="677.99 420.4 683.19 439.79 666.64 429.86 650.86 420.4 677.99 420.4"/><polygon class="cls-2" points="670.89 446.88 683.19 468.19 649.6 459.18 670.89 446.88"/><polygon class="cls-4" points="683.19 439.79 670.89 446.88 663.79 434.6 666.64 429.86 683.19 439.79"/><polygon class="cls-4" points="674.19 406.2 677.99 420.4 650.86 420.4 650.24 420.03 674.19 406.2"/><polygon class="cls-3" points="666.8 378.61 674.19 406.2 650.24 420.03 649.35 419.49 644.4 401 666.8 378.61"/><polygon class="cls-5" points="670.89 446.88 649.6 459.18 649.6 434.6 663.79 434.6 670.89 446.88"/><polygon class="cls-6" points="649.6 342.82 670.89 355.12 663.79 367.41 649.6 367.41 649.6 342.82"/><polygon class="cls-6" points="663.79 367.41 668.99 376.42 666.39 377.11 663.79 367.41"/><polygon class="cls-4" points="668.99 376.42 666.8 378.61 666.39 377.11 668.99 376.42"/><polygon class="cls-5" points="666.8 378.61 644.4 401 649.6 381.61 666.39 377.11 666.8 378.61"/><polygon class="cls-4" points="666.64 429.86 663.79 434.6 649.6 434.6 649.6 420.4 650.86 420.4 666.64 429.86"/><polygon class="cls-2" points="663.79 367.41 666.39 377.11 649.6 381.61 649.6 367.41 663.79 367.41"/><polygon class="cls-6" points="649.6 434.6 649.6 459.18 625.01 434.6 649.6 434.6"/><polygon class="cls-3" points="649.6 420.4 649.6 434.6 625.01 434.6 637.31 413.3 649.6 420.4"/><polygon class="cls-3" points="649.6 367.41 649.6 381.61 637.31 388.7 625.01 367.41 649.6 367.41"/><polygon class="cls-5" points="649.6 342.82 649.6 367.41 625.01 367.41 649.6 342.82"/><polygon class="cls-6" points="649.6 381.61 644.4 401 637.31 388.7 649.6 381.61"/><polygon class="cls-6" points="649.35 419.49 649.6 420.4 637.31 413.3 644.4 401 649.35 419.49"/><polygon class="cls-5" points="637.31 388.7 644.4 401 637.31 413.3 616.01 401 637.31 388.7"/><polygon class="cls-4" points="637.31 388.7 616.01 401 625.01 367.41 637.31 388.7"/><polygon class="cls-2" points="637.31 413.3 625.01 434.6 616.01 401 637.31 413.3"/></g><g id="_Group_10" data-name="&lt;Group&gt;"><polygon class="cls-2" points="189.3 607.68 189.3 629.88 189.01 629.78 159.1 620 189.3 607.68"/><polygon class="cls-3" points="178.55 591.03 189.3 607.68 159.1 620 178.55 591.03"/><polygon class="cls-3" points="189.3 629.88 116.42 720.39 116.42 719.78 152.54 650.6 188.98 629.88 189.01 629.78 189.3 629.88"/><polygon class="cls-4" points="189.01 629.78 188.98 629.88 152.54 650.6 158.74 620.23 159.1 620 189.01 629.78"/><polygon class="cls-5" points="178.55 591.03 159.1 620 152.54 585.49 178.55 591.03"/><polygon class="cls-6" points="152.54 585.49 159.1 620 116.42 604.21 152.54 585.49"/><polygon class="cls-5" points="158.74 620.23 116.42 648.01 116.42 604.21 159.1 620 158.74 620.23"/><polygon class="cls-6" points="158.74 620.23 152.54 650.6 116.42 648.03 116.42 648.01 158.74 620.23"/><polygon class="cls-2" points="152.54 650.6 116.42 719.78 116.42 648.03 152.54 650.6"/><polygon class="cls-5" points="116.42 648.03 116.42 719.78 116.25 720.08 79.97 650.6 116.25 648.02 116.42 648.03"/><polygon class="cls-4" points="116.42 604.21 116.42 648.01 73.73 620 116.42 604.21"/><polygon class="cls-3" points="116.42 604.21 73.73 620 80.29 585.49 116.42 604.21"/><polygon class="cls-3" points="116.25 648.02 79.97 650.6 73.73 620 116.42 648.01 116.25 648.02"/><polygon class="cls-3" points="79.97 650.6 116.25 720.08 116.22 720.14 43.53 629.88 79.97 650.6"/><polygon class="cls-4" points="80.29 585.49 73.73 620 54.28 591.03 80.29 585.49"/><polygon class="cls-2" points="73.73 620 79.97 650.6 43.53 629.88 73.73 620"/><polygon class="cls-2" points="54.28 591.03 73.73 620 43.53 607.68 54.28 591.03"/><polygon class="cls-5" points="73.73 620 43.53 629.88 43.53 607.68 73.73 620"/></g></g></svg>